<?xml version="1.0" encoding="iso-8859-1"?>
<!-- Generator: Adobe Illustrator 16.0.0, SVG Export Plug-In . SVG Version: 6.00 Build 0)  -->
<!DOCTYPE svg PUBLIC "-//W3C//DTD SVG 1.1//EN" "http://www.w3.org/Graphics/SVG/1.1/DTD/svg11.dtd">
<svg version="1.1" id="Capa_1" xmlns="http://www.w3.org/2000/svg" xmlns:xlink="http://www.w3.org/1999/xlink" x="0px" y="0px"
	 width="999.299px" height="999.3px" viewBox="0 0 999.299 999.3" style="enable-background:new 0 0 999.299 999.3;"
	 xml:space="preserve">
<g>
	<path d="M122.85,834.4c64.3,0,116.5-52.3,116.5-116.5c0-15.601-3.1-30.601-8.7-44.2l75.7-75.7c0.1,16.4,1.399,33.2,3.8,50.2
		c7.7,54,26.8,107.8,55.5,158.2c-1.5,4.5-2.3,9.3-2.3,14.2V954.3c0,24.9,20.1,45,45,45h133.699c24.9,0,45-20.1,45-45V820.7
		c0-24.9-20.1-45-45-45h-90c-5.6-9.1-10.899-18.3-15.699-27.7c-19.2-37.1-31.7-74.899-37.101-112.5c-10.5-73.2,7.3-137.2,50.101-180
		c42.8-42.8,106.699-60.6,180-50.1c37.6,5.399,75.4,17.899,112.5,37.1c9.301,4.8,18.4,10,27.4,15.5v96.5c0,24.9,20.1,45,45,45
		H947.95c24.9,0,45-20.1,45-45V420.7c0-24.9-20.1-45-45-45H814.25c-2.1,0-4.201,0.2-6.301,0.4c-52.6-31.2-109.1-51.8-165.799-59.9
		c-17-2.4-33.801-3.7-50.201-3.8l88.1-88.1c13.602,5.6,28.602,8.7,44.201,8.7c64.299,0,116.5-52.3,116.5-116.5
		C840.75,52.3,788.45,0,724.25,0c-64.201,0-116.5,52.2-116.5,116.5c0,15.6,3.1,30.6,8.699,44.2l-449.399,449.4
		c-13.6-5.601-28.6-8.7-44.2-8.7c-64.3,0-116.5,52.3-116.5,116.5S58.55,834.4,122.85,834.4z M902.95,509.5H859.25v-43.7h43.699
		V509.5z M497.15,909.4h-43.7v-43.7h43.7V909.4z M697.75,116.5c0-14.6,11.9-26.5,26.5-26.5s26.5,11.9,26.5,26.5
		c0,14.6-11.9,26.5-26.5,26.5S697.75,131.1,697.75,116.5z M149.35,717.9c0,14.6-11.9,26.5-26.5,26.5s-26.5-11.9-26.5-26.5
		c0-14.601,11.9-26.5,26.5-26.5S149.35,703.3,149.35,717.9z"/>
</g>
<g>
</g>
<g>
</g>
<g>
</g>
<g>
</g>
<g>
</g>
<g>
</g>
<g>
</g>
<g>
</g>
<g>
</g>
<g>
</g>
<g>
</g>
<g>
</g>
<g>
</g>
<g>
</g>
<g>
</g>
</svg>
